<svg xmlns="http://www.w3.org/2000/svg" viewBox="0 0 500 500"><defs><style>.cls-1{fill:#2d4059;}.cls-2{fill:#ffb400;}</style></defs><title>logo</title><g id="background"><rect class="cls-1" width="500" height="500"/></g><g id="Layer_2" data-name="Layer 2"><rect class="cls-2" x="131.36" y="2.85" width="84.86" height="12.88" rx="5" ry="5"/><path class="cls-2" d="M383.71,109.4l-149.46,5.33a6.44,6.44,0,0,0-6.21,6.44v68a6.44,6.44,0,0,0,6.44,6.44H384.19a6.44,6.44,0,0,0,5.56-3.19l21.17-36.3a6.44,6.44,0,0,0,0-6.47l-21.43-37A6.44,6.44,0,0,0,383.71,109.4Z"/><path class="cls-2" d="M88.19,222.49v51.42a6.44,6.44,0,0,0,6.44,6.44h236a6.44,6.44,0,0,0,5.57-3.2L371.89,216a6.44,6.44,0,0,0-5.8-9.69L94.41,216.05A6.44,6.44,0,0,0,88.19,222.49Z"/><path class="cls-2" d="M336.24,27.69a6.44,6.44,0,0,0-5.57-3.21s-82-.49-109.33,0C189.58,25,94.4,29,94.4,29a6.44,6.44,0,0,0-6.21,6.44v57a6.44,6.44,0,0,0,6.44,6.44H366.31a6.44,6.44,0,0,0,5.57-9.67Z"/><path class="cls-2" d="M131.31,124.62v64.5a6.44,6.44,0,0,0,6.44,6.44h72.09a6.44,6.44,0,0,0,6.44-6.44V122a6.44,6.44,0,0,0-6.67-6.44l-72.09,2.57A6.44,6.44,0,0,0,131.31,124.62Z"/><path class="cls-2" d="M209.49,291l-72,2.57a6.44,6.44,0,0,0-6.21,6.44v170a6.44,6.44,0,0,0,6.44,6.44h72a6.44,6.44,0,0,0,6.44-6.44V297.41A6.44,6.44,0,0,0,209.49,291Z"/><path class="cls-2" d="M216.17,486.77c-31.24.56-124.9,4.46-124.9,4.46a3,3,0,0,0-2.85,3h0a3,3,0,0,0,3,3H254a5.19,5.19,0,0,0,5.19-5.19h0a5.19,5.19,0,0,0-5.19-5.19S225.62,486.6,216.17,486.77Z"/></g></svg>