<svg xmlns="http://www.w3.org/2000/svg" viewBox="0 0 500 500"><defs><style>.cls-1{fill:#2d4059;}.cls-2{fill:#ffb400;}</style></defs><title>Artboard 1</title><g id="Layer_1" data-name="Layer 1"><rect class="cls-1" width="500" height="500"/></g><g id="Layer_2" data-name="Layer 2"><path class="cls-2" d="M212.22,330.72H137.33c-45.33,0-82.62-36.85-81.82-82.17a80.82,80.82,0,0,1,80.71-79.27H198.4a13.82,13.82,0,0,1,13.82,13.82h0a13.82,13.82,0,0,1-13.82,13.82H137.14c-30.55,0-55.51,25.36-53.92,55.87a53.14,53.14,0,0,0,53,50.28h76a53.17,53.17,0,0,0,52-42.25A13.73,13.73,0,0,1,277.68,250h0a13.86,13.86,0,0,1,13.51,16.8A80.86,80.86,0,0,1,212.22,330.72Z"/><path class="cls-2" d="M363.17,330.72h-61a13.88,13.88,0,0,1-13.88-13.88h0a13.77,13.77,0,0,1,13.77-13.77h61.31c30.55,0,55.51-25.36,53.92-55.87a53.14,53.14,0,0,0-53-50.28h-76a53.17,53.17,0,0,0-52,42.25A13.73,13.73,0,0,1,222.82,250h0a13.86,13.86,0,0,1-13.51-16.8,80.86,80.86,0,0,1,79-63.92h76A80.82,80.82,0,0,1,445,248.55C445.79,293.87,408.5,330.72,363.17,330.72Z"/><polygon class="cls-2" points="405.08 142.4 468.22 148.97 474.43 208.57 453.96 162.63 405.08 142.4"/></g></svg>