<svg xmlns="http://www.w3.org/2000/svg" viewBox="0 0 500 501"><defs><style>.cls-1{fill:#2d4059;}</style></defs><title>Asset 14</title><g id="Layer_2" data-name="Layer 2"><g id="Layer_1-2" data-name="Layer 1"><path class="cls-1" d="M0,344V501H157V344ZM135,479H22V366H135Z"/><path class="cls-1" d="M171.5,344V501h157V344Zm135,135h-113V366h113Z"/><path class="cls-1" d="M343,344V501H500V344ZM478,479H365V366H478Z"/><path class="cls-1" d="M0,172V329H157V172ZM135,307H22V194H135Z"/><path class="cls-1" d="M171.5,172V329h157V172Zm135,135h-113V194h113Z"/><path class="cls-1" d="M343,172V329H500V172ZM478,307H365V194H478Z"/><path class="cls-1" d="M0,0V157H157V0ZM135,135H22V22H135Z"/><path class="cls-1" d="M171.5,0V157h157V0Zm135,135h-113V22h113Z"/><path class="cls-1" d="M343,0V157H500V0ZM478,135H365V22H478Z"/></g></g></svg>