<svg xmlns="http://www.w3.org/2000/svg" viewBox="0 0 500 500"><defs><style>.cls-1{fill:#2d4059;}.cls-2{fill:#ffb400;}</style></defs><title>Artboard 1 copy</title><g id="background"><rect class="cls-1" width="500" height="500"/></g><g id="Layer_2" data-name="Layer 2"><path class="cls-2" d="M350.83,134.76a8.11,8.11,0,0,0,0-16.22H329.55a8.11,8.11,0,0,0,0,16.22Z"/><rect class="cls-2" x="321.44" y="344.4" width="37.5" height="37.06" rx="8.11" ry="8.11"/><path class="cls-2" d="M482.75,228.54l-47.92-89.23a23.13,23.13,0,0,0-20.41-12.2h-39a5.74,5.74,0,0,0-5.52,4.42,19.7,19.7,0,0,1-19.06,14.81H329.55a19.7,19.7,0,0,1-19.06-14.81,5.74,5.74,0,0,0-5.52-4.42H259.65A23.75,23.75,0,0,0,239,138.66a23,23,0,0,0-.34,22.64l33,60.94a34.65,34.65,0,0,1,0,33L238.5,317a23,23,0,0,0,.39,22.63,23.75,23.75,0,0,0,20.6,11.5h45.63a5.75,5.75,0,0,0,5.54-4.13,19.7,19.7,0,0,1,18.89-14.22h21.28A19.7,19.7,0,0,1,369.73,347a5.75,5.75,0,0,0,5.54,4.13h39.22A23.15,23.15,0,0,0,434.86,339l47.86-88.49A23.16,23.16,0,0,0,482.75,228.54Z"/><path class="cls-2" d="M129.61,134.76a8.11,8.11,0,1,0,0-16.22H108.33a8.11,8.11,0,0,0,0,16.22Z"/><rect class="cls-2" x="100.22" y="344.4" width="37.5" height="37.06" rx="8.11" ry="8.11"/><path class="cls-2" d="M261.53,228.54l-47.92-89.23a23.13,23.13,0,0,0-20.41-12.2h-39a5.74,5.74,0,0,0-5.52,4.42,19.7,19.7,0,0,1-19.06,14.81H108.33a19.7,19.7,0,0,1-19.06-14.81,5.74,5.74,0,0,0-5.52-4.42H38.43a23.75,23.75,0,0,0-20.62,11.54,23,23,0,0,0-.34,22.64l33,60.94a34.65,34.65,0,0,1,0,33L17.28,317a23,23,0,0,0,.39,22.63,23.75,23.75,0,0,0,20.6,11.5H83.9A5.75,5.75,0,0,0,89.44,347a19.7,19.7,0,0,1,18.89-14.22h21.28A19.7,19.7,0,0,1,148.51,347a5.75,5.75,0,0,0,5.54,4.13h39.22A23.15,23.15,0,0,0,213.64,339l47.86-88.49A23.16,23.16,0,0,0,261.53,228.54Z"/></g></svg>