<svg xmlns="http://www.w3.org/2000/svg" viewBox="0 0 500 500"><defs><style>.cls-1{fill:#2d4059;}.cls-2{fill:#ffb400;}</style></defs><title>Artboard 1 copy 29svg</title><g id="background"><rect class="cls-1" width="500" height="500"/></g><g id="Layer_2" data-name="Layer 2"><path class="cls-2" d="M219.9,266.81a2.5,2.5,0,0,0,.1,5l134.63,4.56A28.51,28.51,0,0,0,377,267l83.26-92.27a19,19,0,0,0,0-25.46l-81-89.86a38,38,0,0,0-28.24-12.57H202.27a2.94,2.94,0,0,1-2.94-2.94v-9a4.89,4.89,0,0,0-4.89-4.89H146.87A4.89,4.89,0,0,0,142,34.83v9A2.94,2.94,0,0,1,139,46.81H46.94a2.85,2.85,0,0,0-.18,5.7c115.65,7,275.71,30.62,293.59,42,8.39,5.32,67.37,45.38,68.45,68.13.88,18.59-35.58,78.69-49.69,87.51C348.47,256.74,272.56,263.11,219.9,266.81Z"/><path class="cls-2" d="M194.31,130.65c.56-19.67-11-18.66-21.06,3l-17.13,41a47.52,47.52,0,0,0-3.49,14.15L128.94,456.29a15.21,15.21,0,0,0,15.15,16.55h38.86a11.4,11.4,0,0,0,11.4-11.42Z"/></g></svg>