<svg id="Layer_1" data-name="Layer 1" xmlns="http://www.w3.org/2000/svg" viewBox="0 0 500 500"><defs><style>.cls-1{fill:#2d4059;}.cls-2{fill:#ffb400;}</style></defs><title>Artboard 1 copy 3</title><rect class="cls-1" width="500" height="500"/><path class="cls-2" d="M465.67,180.13,404.62,79a22.67,22.67,0,0,0-19.45-10.74H290.3V73c0,15.06-13.07,27.31-29.13,27.31h-23c-16.06,0-29.13-12.25-29.13-27.31V68.24H114.83A22.67,22.67,0,0,0,95.38,79L34.33,180.13a20.68,20.68,0,0,0,0,21.48L95.38,302.76a22.66,22.66,0,0,0,19.45,10.74h94.23v-4.76c0-15.06,13.07-27.31,29.13-27.31h23c16.06,0,29.13,12.25,29.13,27.31v4.76h94.87a22.66,22.66,0,0,0,19.45-10.74l61.05-101.15A20.68,20.68,0,0,0,465.67,180.13Zm-72.57,7.05q-9.6,11.71-20.28,22.46T350.35,230c-4,3.28-8.26,7.69-13.36,9a14.58,14.58,0,0,1-15.53-6c-5.65-8.52.47-17.34,4.32-25.17l7.85-16-4.2,3.83L287,234.41c-7.48,6.81-14.91,13.68-22.89,19.9-4.62,3.6-10.11,5.12-15.69,2.66a14.48,14.48,0,0,1-8.77-12.81c-.14-5.62,3.75-10.63,6.42-15.29l8.43-14.71,13.37-23.32q-6.7,6.6-13.25,13.35c-14.08,14.45-27.88,29.18-42.59,43a311.73,311.73,0,0,1-23.76,20.47c-4.27,3.27-8.81,7-14.19,8.05a14.24,14.24,0,0,1-14.37-6.16c-5.26-8-1.12-14.43,3.53-20.73l14.51-19.67,38.08-51.61,11.25-15.25.86-1.18q-4.59,4.42-9.07,9c-12.46,12.56-24.37,25.64-36.31,38.69-10.71,11.71-21.45,23.41-32.62,34.69-5.47,5.52-11,10.94-16.76,16.21-6.25,5.75-13.52,12.1-22.38,7.15-7.27-4.06-9.42-12.81-5.54-20,.59-1.09,1.34-2.11,2-3.15l10.67-16.86L140.56,191q10-15.78,19.93-31.59,7-11.22,13.93-22.52,1-1.67,2-3.36a151.84,151.84,0,0,0-14.86,10.07,156,156,0,0,0-26.65,26.67c-3.54,4.47-11.2,3.65-14.85,0-4.34-4.34-3.52-10.41,0-14.85a169,169,0,0,1,60.6-47.92c6.86-3.2,14.5-4.92,20.44,1.29,5.2,5.44,4.29,12.36,1.77,18.79-4.86,12.43-12.59,23.64-19.61,34.92-8.93,14.37-18,28.65-27,42.95l-1.72,2.71C163.84,198.18,173,188,182.3,178c14.85-16,29.91-32.59,46.95-46.37,7.79-6.3,19.64-16.23,30.32-12.57a14.44,14.44,0,0,1,9.23,16.84c-1.24,5.14-5,10.25-7.84,14.66-5.56,8.73-11.81,17-17.95,25.3l-31,42,2.28-2.29c15.42-15.61,30.31-31.74,46.22-46.85q6.11-5.81,12.44-11.38c4.12-3.61,8.35-7.85,13-10.77,11.39-7.13,25.79,4,21.48,16.75-1.74,5.17-5.38,10-8.08,14.75l-8.93,15.58L279.36,213l7.39-6.73L336.42,161c5.66-5.16,11.51-12.26,20-11.21,10.75,1.34,15,12.36,10.73,21.47-1.19,2.56-2.49,5.07-3.73,7.6l-10,20.45c.49-.47,1-.92,1.47-1.39a309.87,309.87,0,0,0,23.45-25.59c3.61-4.41,11.14-3.71,14.85,0C397.39,176.62,396.7,182.8,393.1,187.18Z"/><path class="cls-2" d="M272.62,73V49.81c0-5.13-5-9.31-11.13-9.31h-23c-6.14,0-11.13,4.17-11.13,9.31V73c0,5.13,5,9.31,11.13,9.31h23C267.63,82.27,272.62,78.1,272.62,73Z"/><path class="cls-2" d="M227.38,308.74V450.19c0,5.13,5,9.31,11.13,9.31h23c6.14,0,11.13-4.17,11.13-9.31V308.74c0-5.13-5-9.31-11.13-9.31h-23C232.38,299.43,227.38,303.6,227.38,308.74Z"/></svg>