<svg id="Layer_1" data-name="Layer 1" xmlns="http://www.w3.org/2000/svg" viewBox="0 0 595.28 595.28"><defs><style>.cls-1{fill:#d7ebf2;}.cls-2{fill:#a1d6e2;}.cls-3{fill:#66b4cc;}.cls-4{fill:#2d4059;}</style></defs><title>Artboard 1</title><circle class="cls-1" cx="400.33" cy="108.26" r="108.26"/><path class="cls-1" d="M595.28,467.52c0-107.57-87.2-194.77-194.77-194.77S205.75,360,205.75,467.52Z"/><circle class="cls-2" cx="331.75" cy="150.85" r="108.26"/><path class="cls-2" d="M526.7,510.11c0-107.57-87.2-194.77-194.77-194.77s-194.77,87.2-194.77,194.77Z"/><circle class="cls-3" cx="263.17" cy="193.43" r="108.26"/><path class="cls-3" d="M458.12,552.69c0-107.57-87.2-194.77-194.77-194.77S68.58,445.12,68.58,552.69Z"/><circle class="cls-4" cx="194.58" cy="236.02" r="108.26"/><path class="cls-4" d="M389.53,595.28c0-107.57-87.2-194.77-194.77-194.77S0,487.71,0,595.28Z"/></svg>