<?xml version="1.0" encoding="utf-8"?>
<!-- Generator: Adobe Illustrator 21.0.0, SVG Export Plug-In . SVG Version: 6.00 Build 0)  -->
<svg version="1.1" id="Layer_1" xmlns="http://www.w3.org/2000/svg" xmlns:xlink="http://www.w3.org/1999/xlink" x="0px" y="0px"
	 viewBox="0 0 512 512" style="enable-background:new 0 0 512 512;" xml:space="preserve">
<style type="text/css">
	.st0{fill:#FFFFFF;}
</style>
<path class="st0" d="M122.9,278.2c0.6-1.6,7.1-26.2,7.5-27.9c-10-15.1-21.1-64.4-12.6-104.4C127,87.2,189.3,58.3,248,58.3v-0.1
	c73.6,0,128.6,41,128.7,111.5c0,55.2-33.2,128.1-90,128.1c0,0,0,0,0,0c-20.3,0-45.9-9.2-52.6-18.2c-7.8-10.4-9.7-23.2-5.6-36.9
	c10.1-32.1,22.9-70.5,24.4-96.1c1.4-24.2-15.8-39.9-38-39.9c-16.7,0-38.5,9.7-49.3,37.1c-9,22.7-8.8,46.5,0.6,72.7
	c3.6,10.2-16.2,77-22.5,98.7c-15.8,54-37.3,122.3-32.7,160.3l4.5,36.6l22.4-29.3c31-40.5,63-145.3,71.5-170.8
	c25.2,32.6,77.7,33.6,83.8,33.6c75.2,0,160.4-74.7,158-178.6C448.9,75.8,382.3,0,262.4,0v0.1C148.5,0.1,81.9,61,65.6,137.8
	C50.7,209.1,83.9,263.3,122.9,278.2z"/>
</svg>
